# xmcd
#
# Track frame offsets: 
#        150
#        10133
#        21310
#        35139
#        45136
#        57508
#        70244
#        81946
#        95080
#        105316
#        120732
#        131509
#
# Disc length: 1893 seconds
#
# Revision: 0
# Processed by: cddbd v1.5.2PL0 Copyright (c) Steve Scherf et al.
# Submitted via: ExactAudioCopyFreeDBPlugin 1.0
#
DISCID=9c07630c
DTITLE=Porter Wagoner - Soul Of A Convict and Other Great Prison Songs
DYEAR=1967
DGENRE=Country
TTITLE0=Boston Jail
TTITLE1=The Convict And The Rose
TTITLE2=I Relived My Life Today
TTITLE3=I'm Just Here To Get My Baby Out Of Jail
TTITLE4=Let Me In
TTITLE5=The Big River Train
TTITLE6=The Snakes Crawl At Night
TTITLE7=They're All Going Home But One
TTITLE8=Folsom Prison
TTITLE9=Soul Of A Convict
TTITLE10=Green, Green Grass Of Home
TTITLE11=Lonesome Whistle
EXTD=
EXTT0=
EXTT1=
EXTT2=
EXTT3=
EXTT4=
EXTT5=
EXTT6=
EXTT7=
EXTT8=
EXTT9=
EXTT10=
EXTT11=
PLAYORDER=
